<svg width="36" height="36" viewBox="0 0 36 36" fill="none" xmlns="http://www.w3.org/2000/svg">
<path d="M17.3333 10V28C17.3333 29.44 16.7466 30.76 15.8133 31.72L15.76 31.7734C15.64 31.8934 15.5067 32.0134 15.3867 32.1067C14.9867 32.4534 14.5333 32.72 14.0666 32.9067C13.92 32.9733 13.7733 33.0267 13.6267 33.08C13.1067 33.2534 12.5467 33.3334 12 33.3334C11.64 33.3334 11.28 33.2934 10.9333 33.2267C10.76 33.1867 10.5867 33.1467 10.4133 33.0934C10.2 33.0267 10 32.96 9.8 32.8667C9.8 32.8533 9.79998 32.8533 9.78665 32.8667C9.41332 32.68 9.05333 32.4667 8.72 32.2134L8.70665 32.2C8.53332 32.0667 8.37334 31.9334 8.22667 31.7734C8.08001 31.6134 7.93332 31.4534 7.78665 31.28C7.53332 30.9467 7.32 30.5867 7.13333 30.2134C7.14666 30.2 7.14666 30.2 7.13333 30.2C7.13333 30.2 7.13332 30.1867 7.11998 30.1734C7.03998 29.9867 6.97331 29.7867 6.90665 29.5867C6.85331 29.4134 6.81331 29.24 6.77331 29.0667C6.70664 28.72 6.66666 28.36 6.66666 28V10C6.66666 8.00002 7.99999 6.66669 9.99999 6.66669H14C16 6.66669 17.3333 8.00002 17.3333 10Z" fill="#DFD8FC"/>
<path d="M33.3333 26V30C33.3333 32 32 33.3334 30 33.3334H12C12.5467 33.3334 13.1067 33.2534 13.6267 33.08C13.7733 33.0267 13.92 32.9733 14.0667 32.9067C14.5333 32.72 14.9867 32.4534 15.3867 32.1067C15.5067 32.0134 15.64 31.8934 15.76 31.7734L15.8133 31.72L24.88 22.6667H30C32 22.6667 33.3333 24 33.3333 26Z" fill="#DFD8FC"/>
<path d="M28.4933 19.0533L24.88 22.6666L15.8133 31.72C16.7467 30.76 17.3333 29.44 17.3333 28V15.12L20.9467 11.5067C22.36 10.0933 24.2533 10.0933 25.6667 11.5067L28.4933 14.3333C29.9067 15.7466 29.9067 17.64 28.4933 19.0533Z" fill="#DFD8FC"/>
<path d="M14.3333 7.00002V25C14.3333 26.44 13.7466 27.76 12.8133 28.72L12.76 28.7734C12.64 28.8934 12.5067 29.0134 12.3867 29.1067C11.9867 29.4534 11.5333 29.72 11.0666 29.9067C10.92 29.9733 10.7733 30.0267 10.6267 30.08C10.1067 30.2534 9.54666 30.3334 8.99999 30.3334C8.63999 30.3334 8.28001 30.2934 7.93334 30.2267C7.76001 30.1867 7.58665 30.1467 7.41332 30.0934C7.19999 30.0267 7 29.96 6.8 29.8667C6.8 29.8533 6.79998 29.8533 6.78665 29.8667C6.41332 29.68 6.05333 29.4667 5.72 29.2134L5.70665 29.2C5.53332 29.0667 5.37334 28.9334 5.22667 28.7734C5.08001 28.6134 4.93332 28.4534 4.78665 28.28C4.53332 27.9467 4.32 27.5867 4.13333 27.2134C4.14666 27.2 4.14666 27.2 4.13333 27.2C4.13333 27.2 4.13332 27.1867 4.11998 27.1734C4.03998 26.9867 3.97331 26.7867 3.90665 26.5867C3.85331 26.4134 3.81331 26.24 3.77331 26.0667C3.70664 25.72 3.66666 25.36 3.66666 25V7.00002C3.66666 5.00002 4.99999 3.66669 6.99999 3.66669H11C13 3.66669 14.3333 5.00002 14.3333 7.00002Z" stroke="#5E3BEE" stroke-width="1.5" stroke-linecap="round" stroke-linejoin="round"/>
<path d="M30.3333 23V27C30.3333 29 29 30.3334 27 30.3334H9C9.54667 30.3334 10.1067 30.2534 10.6267 30.08C10.7733 30.0267 10.92 29.9733 11.0667 29.9067C11.5333 29.72 11.9867 29.4534 12.3867 29.1067C12.5067 29.0134 12.64 28.8934 12.76 28.7734L12.8133 28.72L21.88 19.6667H27C29 19.6667 30.3333 21 30.3333 23Z" stroke="#5E3BEE" stroke-width="1.5" stroke-linecap="round" stroke-linejoin="round"/>
<path d="M7.41332 30.0933C6.61332 29.8533 5.85334 29.4133 5.22667 28.7733C4.58667 28.1467 4.14665 27.3867 3.90665 26.5867C4.42665 28.2533 5.74665 29.5733 7.41332 30.0933Z" stroke="#5E3BEE" stroke-width="1.5" stroke-linecap="round" stroke-linejoin="round"/>
<path d="M25.4933 16.0533L21.88 19.6666L12.8133 28.72C13.7467 27.76 14.3333 26.44 14.3333 25V12.12L17.9467 8.50666C19.36 7.09332 21.2533 7.09332 22.6667 8.50666L25.4933 11.3333C26.9067 12.7466 26.9067 14.64 25.4933 16.0533Z" stroke="#5E3BEE" stroke-width="1.5" stroke-linecap="round" stroke-linejoin="round"/>
<path d="M8.99999 26.3334C9.73637 26.3334 10.3333 25.7364 10.3333 25C10.3333 24.2636 9.73637 23.6667 8.99999 23.6667C8.26361 23.6667 7.66666 24.2636 7.66666 25C7.66666 25.7364 8.26361 26.3334 8.99999 26.3334Z" stroke="#5E3BEE" stroke-width="1.5" stroke-linecap="round" stroke-linejoin="round"/>
</svg>
