<svg width="36" height="36" viewBox="0 0 36 36" fill="none" xmlns="http://www.w3.org/2000/svg">
<path d="M12.5867 6.66666H27.4C32.1467 6.66666 33.3333 7.85332 33.3333 12.5867V21.0267C33.3333 25.7733 32.1467 26.9467 27.4133 26.9467H12.5867C7.85333 26.96 6.66667 25.7733 6.66667 21.04V12.5867C6.66667 7.85332 7.85333 6.66666 12.5867 6.66666Z" fill="#D9F5FE"/>
<path d="M9.58667 3.66666H24.4C29.1467 3.66666 30.3333 4.85332 30.3333 9.58666V18.0267C30.3333 22.7733 29.1467 23.9467 24.4133 23.9467H9.58667C4.85333 23.96 3.66667 22.7733 3.66667 18.04V9.58666C3.66667 4.85332 4.85333 3.66666 9.58667 3.66666Z" stroke="#74D1EF" stroke-width="1.5" stroke-linecap="round" stroke-linejoin="round"/>
<path d="M17 23.96V30.3333" stroke="#74D1EF" stroke-width="1.5" stroke-linecap="round" stroke-linejoin="round"/>
<path d="M3.66667 18.3333H30.3333" stroke="#74D1EF" stroke-width="1.5" stroke-linecap="round" stroke-linejoin="round"/>
<path d="M11 30.3333H23" stroke="#74D1EF" stroke-width="1.5" stroke-linecap="round" stroke-linejoin="round"/>
</svg>
